<svg width="18" height="13" viewBox="0 0 18 13" fill="none" xmlns="http://www.w3.org/2000/svg">
<g id="3 User">
<path id="3 Friends" fill-rule="evenodd" clip-rule="evenodd" d="M12.2551 3.84406C12.2551 5.60101 10.8545 7.0098 9.10768 7.0098C7.36088 7.0098 5.96023 5.60101 5.96023 3.84406C5.96023 2.08643 7.36088 0.678986 9.10768 0.678986C10.8545 0.678986 12.2551 2.08643 12.2551 3.84406ZM9.10767 12.6428C6.54204 12.6428 4.35134 12.2361 4.35134 10.6091C4.35134 8.98145 6.52798 8.55989 9.10767 8.55989C11.6733 8.55989 13.864 8.96663 13.864 10.5943C13.864 12.2213 11.6874 12.6428 9.10767 12.6428ZM13.6001 3.90117C13.6001 4.79682 13.333 5.63118 12.8643 6.32481C12.8161 6.39619 12.859 6.49249 12.944 6.5073C13.0612 6.5275 13.1824 6.53895 13.3056 6.54232C14.5341 6.57464 15.6369 5.77934 15.9415 4.582C16.3927 2.80349 15.0678 1.20682 13.3805 1.20682C13.1971 1.20682 13.0217 1.22635 12.8509 1.26136C12.8275 1.26675 12.8027 1.27753 12.7893 1.2984C12.7733 1.32399 12.7853 1.35834 12.8014 1.38056C13.3082 2.09506 13.6001 2.96646 13.6001 3.90117ZM15.6348 7.79191C16.4604 7.95421 17.0034 8.28553 17.2283 8.76703C17.4185 9.16232 17.4185 9.62092 17.2283 10.0155C16.8842 10.7624 15.7748 11.0021 15.3436 11.0641C15.2546 11.0775 15.1829 11.0001 15.1923 10.9105C15.4126 8.8411 13.6604 7.85993 13.2071 7.63433C13.1877 7.62423 13.1837 7.60874 13.1857 7.59932C13.1871 7.59258 13.1951 7.58181 13.2098 7.57979C14.1907 7.5616 15.2452 7.69629 15.6348 7.79191ZM4.98621 6.54225C5.10941 6.53888 5.22992 6.52811 5.34776 6.50723C5.43279 6.49242 5.47564 6.39612 5.42743 6.32474C4.95876 5.63111 4.69162 4.79675 4.69162 3.9011C4.69162 2.96639 4.98353 2.09499 5.49037 1.38049C5.50644 1.35827 5.51782 1.32392 5.50242 1.29833C5.48903 1.27813 5.46359 1.26668 5.44082 1.2613C5.26942 1.22628 5.09401 1.20675 4.91056 1.20675C3.22334 1.20675 1.89835 2.80343 2.35028 4.58193C2.65491 5.77927 3.75763 6.57458 4.98621 6.54225ZM5.10571 7.59891C5.10772 7.60901 5.1037 7.62382 5.08495 7.6346C4.63101 7.86019 2.87886 8.84136 3.09913 10.9101C3.10851 11.0003 3.03754 11.0771 2.94849 11.0643C2.51731 11.0024 1.4079 10.7626 1.06377 10.0158C0.87295 9.62051 0.87295 9.16259 1.06377 8.76729C1.28873 8.28579 1.83105 7.95447 2.65657 7.7915C3.04691 7.69655 4.10075 7.56187 5.08227 7.58005C5.097 7.58207 5.10437 7.59284 5.10571 7.59891Z" fill="#4C1432"/>
</g>
</svg>
