<svg width="16" height="16" viewBox="0 0 16 16" fill="none" xmlns="http://www.w3.org/2000/svg">
<g id="Game">
<path id="Game_2" fill-rule="evenodd" clip-rule="evenodd" d="M10.5991 3.45313C10.8347 3.45636 11.0709 3.4596 11.3079 3.46202C13.8541 3.46202 15.7107 5.27734 15.7107 7.78422V11.0043C15.7107 13.5111 13.8541 15.3264 11.3079 15.3264C10.2879 15.3481 9.26791 15.3553 8.2406 15.3553C7.21328 15.3553 6.17862 15.3481 5.15865 15.3264C2.61237 15.3264 0.755859 13.5111 0.755859 11.0043V7.78422C0.755859 5.27734 2.61237 3.46202 5.16598 3.46202C6.12726 3.44761 7.11055 3.43321 8.10851 3.43321V3.31075C8.10851 2.81369 7.69025 2.41029 7.19127 2.41029H6.46481C5.63561 2.41029 4.96052 1.74755 4.96052 0.940741C4.96052 0.645391 5.21001 0.400467 5.51087 0.400467C5.81906 0.400467 6.06122 0.645391 6.06122 0.940741C6.06122 1.15685 6.24467 1.32974 6.46481 1.32974H7.19127C8.2993 1.33694 9.20187 2.22299 9.20921 3.30354V3.44041C9.67179 3.44041 10.1344 3.44676 10.5991 3.45313ZM7.37472 9.93091H6.60423V10.6945C6.60423 10.9898 6.35474 11.2348 6.05388 11.2348C5.74569 11.2348 5.50353 10.9898 5.50353 10.6945V9.93091H4.72571C4.42485 9.93091 4.17536 9.69318 4.17536 9.39063C4.17536 9.09528 4.42485 8.85036 4.72571 8.85036H5.50353V8.09397C5.50353 7.79862 5.74569 7.5537 6.05388 7.5537C6.35474 7.5537 6.60423 7.79862 6.60423 8.09397V8.85036H7.37472C7.67557 8.85036 7.92507 9.09528 7.92507 9.39063C7.92507 9.69318 7.67557 9.93091 7.37472 9.93091ZM10.4934 8.71349H10.5667C10.8676 8.71349 11.1171 8.47577 11.1171 8.17321C11.1171 7.87786 10.8676 7.63294 10.5667 7.63294H10.4934C10.1852 7.63294 9.94301 7.87786 9.94301 8.17321C9.94301 8.47577 10.1852 8.71349 10.4934 8.71349ZM11.7482 11.1915H11.8215C12.1224 11.1915 12.3719 10.9538 12.3719 10.6513C12.3719 10.3559 12.1224 10.111 11.8215 10.111H11.7482C11.4392 10.111 11.1978 10.3559 11.1978 10.6513C11.1978 10.9538 11.4392 11.1915 11.7482 11.1915Z" fill="#4C1432"/>
</g>
</svg>
