<svg width="53" height="71" viewBox="0 0 53 71" fill="none" xmlns="http://www.w3.org/2000/svg">
<g id="Frame" clip-path="url(#clip0_12_164)">
<g id="Group">
<g id="OBJECTS">
<g id="Group_2">
<path id="Vector" d="M9.21757 27.9051V36.4053L21.0432 43.8703V70.5012L14.1713 63.9316V49.9255L10.68 46.4073V60.5976L6.25167 56.3713V44.8419L0.329346 40.6442V17.0775L2.93124 15.9153C7.3532 13.9403 10.202 9.53621 10.202 4.68124V4.67489L21.0401 0.216827V29.4927L9.21441 27.9051H9.21757Z" fill="#F53FA1"/>
<path id="Vector_2" d="M52.6712 17.0775V40.6474L46.7362 44.8419V56.3713L42.3079 60.5976V46.4073L38.8324 49.9255V63.9316L31.9604 70.5012V43.8703L43.7703 36.4053V27.9051L31.9604 29.4927V0.216827L42.7859 4.67489C42.7859 9.53304 45.6378 13.9371 50.0629 15.9121L52.6712 17.0775Z" fill="#F53FA1"/>
<path id="Vector_3" d="M31.9604 0.216827V29.4927L26.5002 30.2167L21.04 29.4927V0.216827H31.9604Z" fill="url(#paint0_linear_12_164)"/>
<path id="Vector_4" style="mix-blend-mode:darken" d="M48.0247 36.926L52.6714 40.6442L46.7333 44.8419V56.3713L42.305 60.5976V46.4073L38.8326 49.9223V63.9284L31.9575 70.5012V43.8671L43.7673 36.4021V27.9051L37.3639 28.7656C37.4683 25.2887 37.6899 18.5222 37.9843 15.2168C38.3926 10.6571 42.7829 4.6749 42.7829 4.6749C42.7829 7.10397 43.4951 9.41873 44.7613 11.3747C46.0274 13.3307 47.8474 14.9246 50.06 15.9121L52.6714 17.0743L48.0247 24.2694V36.926Z" fill="url(#paint1_linear_12_164)"/>
<path id="Vector_5" style="mix-blend-mode:darken" d="M52.6711 17.0743V40.6442L48.0244 36.926V24.2694L52.6711 17.0743Z" fill="url(#paint2_linear_12_164)"/>
<path id="Vector_6" style="mix-blend-mode:darken" d="M4.97604 36.9292L0.329346 40.6474L6.26749 44.8451V56.3745L10.6958 60.6007V46.4105L14.1681 49.9255V63.9316L21.0432 70.5044V43.8703L9.2334 36.4053V27.9083L15.6368 28.7688C15.5324 25.2918 15.3108 18.5254 15.0164 15.2199C14.6081 10.6603 10.2178 4.67807 10.2178 4.67807C10.2178 7.10714 9.50562 9.42191 8.23949 11.3779C6.97336 13.3338 5.1533 14.9278 2.94074 15.9153L0.329346 17.0775L4.97604 24.2726V36.9292Z" fill="url(#paint3_linear_12_164)"/>
<path id="Vector_7" style="mix-blend-mode:darken" d="M0.329346 17.0775V40.6474L4.97604 36.9292V24.2726L0.329346 17.0775Z" fill="url(#paint4_linear_12_164)"/>
</g>
</g>
</g>
</g>
<defs>
<linearGradient id="paint0_linear_12_164" x1="26.5002" y1="-11.9285" x2="26.5002" y2="30.2453" gradientUnits="userSpaceOnUse">
<stop stop-color="#4C1432"/>
<stop offset="0.71" stop-color="#E22C8D"/>
<stop offset="1" stop-color="#F53FA0"/>
</linearGradient>
<linearGradient id="paint1_linear_12_164" x1="41.4567" y1="-2.54882" x2="42.4823" y2="52.3608" gradientUnits="userSpaceOnUse">
<stop stop-color="#606060"/>
<stop offset="1" stop-color="white" stop-opacity="0"/>
</linearGradient>
<linearGradient id="paint2_linear_12_164" x1="46.4671" y1="15.4803" x2="56.0834" y2="43.833" gradientUnits="userSpaceOnUse">
<stop stop-color="#606060"/>
<stop offset="1" stop-color="white" stop-opacity="0"/>
</linearGradient>
<linearGradient id="paint3_linear_12_164" x1="11.5441" y1="-2.54882" x2="10.5216" y2="52.3608" gradientUnits="userSpaceOnUse">
<stop stop-color="#606060"/>
<stop offset="1" stop-color="white" stop-opacity="0"/>
</linearGradient>
<linearGradient id="paint4_linear_12_164" x1="6.53654" y1="15.4803" x2="-3.083" y2="43.8361" gradientUnits="userSpaceOnUse">
<stop stop-color="#606060"/>
<stop offset="1" stop-color="white" stop-opacity="0"/>
</linearGradient>
<clipPath id="clip0_12_164">
<rect width="52.3418" height="70.2875" fill="white" transform="translate(0.329346 0.216827)"/>
</clipPath>
</defs>
</svg>
