<svg width="19" height="19" viewBox="0 0 19 19" fill="none" xmlns="http://www.w3.org/2000/svg">
<g id="pin-02">
<g id="Icon">
<path d="M9.97019 3.63154C10.2034 3.08741 10.32 2.81534 10.5084 2.69176C10.6732 2.58368 10.8739 2.54502 11.0671 2.58417C11.2879 2.62894 11.4972 2.83824 11.9158 3.25684L15.7615 7.10257C16.1801 7.52118 16.3894 7.73048 16.4342 7.95132C16.4734 8.14444 16.4347 8.34521 16.3266 8.50998C16.203 8.6984 15.931 8.81499 15.3868 9.04819L13.5217 9.84753C13.4426 9.88144 13.403 9.8984 13.3659 9.91959C13.333 9.93842 13.3015 9.95973 13.2718 9.98334C13.2383 10.0099 13.2079 10.0403 13.147 10.1012L11.9799 11.2684C11.8847 11.3636 11.8371 11.4112 11.7992 11.4654C11.7657 11.5135 11.7379 11.5655 11.7165 11.6201C11.6923 11.6817 11.6791 11.7477 11.6527 11.8797L11.1047 14.6198C10.9623 15.3318 10.8911 15.6879 10.7033 15.8544C10.5398 15.9995 10.321 16.0658 10.1044 16.0358C9.8558 16.0013 9.59905 15.7446 9.08557 15.2311L3.78728 9.93281C3.2738 9.41933 3.01705 9.16258 2.98259 8.91399C2.95257 8.69743 3.01883 8.47857 3.16394 8.31503C3.33051 8.12731 3.68655 8.0561 4.39862 7.91369L7.13869 7.36568C7.27071 7.33927 7.33673 7.32607 7.39828 7.30192C7.45292 7.28049 7.50485 7.2527 7.55298 7.21913C7.60722 7.1813 7.65482 7.1337 7.75003 7.0385L8.91717 5.87136C8.97804 5.81049 9.00847 5.78005 9.03504 5.7466C9.05865 5.71688 9.07996 5.6854 9.09879 5.65245C9.11998 5.61535 9.13693 5.57579 9.17084 5.49667L9.97019 3.63154Z" fill="#4C1432"/>
<path d="M6.4364 12.5819L2.20654 16.8118M8.91717 5.87136L7.75003 7.0385C7.65482 7.1337 7.60722 7.1813 7.55298 7.21913C7.50485 7.2527 7.45292 7.28049 7.39828 7.30192C7.33673 7.32607 7.27071 7.33927 7.13869 7.36568L4.39862 7.91369C3.68655 8.0561 3.33051 8.12731 3.16394 8.31503C3.01883 8.47857 2.95257 8.69743 2.98259 8.91399C3.01705 9.16258 3.2738 9.41933 3.78728 9.93281L9.08557 15.2311C9.59905 15.7446 9.8558 16.0013 10.1044 16.0358C10.321 16.0658 10.5398 15.9995 10.7033 15.8544C10.8911 15.6879 10.9623 15.3318 11.1047 14.6198L11.6527 11.8797C11.6791 11.7477 11.6923 11.6817 11.7165 11.6201C11.7379 11.5655 11.7657 11.5135 11.7993 11.4654C11.8371 11.4112 11.8847 11.3636 11.9799 11.2684L13.147 10.1012C13.2079 10.0403 13.2383 10.0099 13.2718 9.98334C13.3015 9.95973 13.333 9.93842 13.3659 9.91959C13.403 9.8984 13.4426 9.88144 13.5217 9.84753L15.3868 9.04819C15.931 8.81499 16.203 8.6984 16.3266 8.50998C16.4347 8.34521 16.4734 8.14444 16.4342 7.95132C16.3894 7.73048 16.1801 7.52118 15.7615 7.10257L11.9158 3.25684C11.4972 2.83824 11.2879 2.62894 11.0671 2.58417C10.8739 2.54502 10.6732 2.58368 10.5084 2.69176C10.32 2.81534 10.2034 3.08741 9.97019 3.63154L9.17084 5.49667C9.13693 5.57579 9.11998 5.61535 9.09879 5.65245C9.07996 5.6854 9.05865 5.71688 9.03504 5.7466C9.00847 5.78005 8.97804 5.81049 8.91717 5.87136Z" stroke="#4C1432" stroke-width="1.49548" stroke-linecap="round" stroke-linejoin="round"/>
</g>
</g>
</svg>
