<svg width="16" height="15" viewBox="0 0 16 15" fill="none" xmlns="http://www.w3.org/2000/svg">
<g id="Ticket Star">
<path id="Ticket Star_2" fill-rule="evenodd" clip-rule="evenodd" d="M14.0365 7.66164C14.0365 8.26993 14.536 8.76485 15.1499 8.76485C15.4594 8.76485 15.7107 9.0138 15.7107 9.32053V11.3217C15.7107 13.014 14.3214 14.3906 12.6135 14.3906H3.85375C2.14591 14.3906 0.755859 13.014 0.755859 11.3217V9.32053C0.755859 9.0138 1.0071 8.76485 1.31666 8.76485C1.93131 8.76485 2.4308 8.26993 2.4308 7.66164C2.4308 7.06892 1.9515 6.62289 1.31666 6.62289C1.16786 6.62289 1.02579 6.56436 0.920362 6.45989C0.814931 6.35542 0.755859 6.21391 0.755859 6.06721L0.757355 4.00082C0.757355 2.30859 2.14666 0.931244 3.85449 0.931244H12.612C14.3199 0.931244 15.7099 2.30859 15.7099 4.00082L15.7107 6.00275C15.7107 6.14945 15.6516 6.29171 15.5469 6.39543C15.4415 6.4999 15.2994 6.55843 15.1499 6.55843C14.536 6.55843 14.0365 7.05336 14.0365 7.66164ZM9.91717 8.14545L10.7988 7.29489C10.952 7.14819 11.0051 6.93184 10.9386 6.7318C10.8728 6.53175 10.7008 6.3895 10.4929 6.3606L9.27486 6.18427L8.72976 5.09069C8.63629 4.9025 8.44637 4.78544 8.23476 4.7847H8.23326C8.0224 4.7847 7.83247 4.90176 7.73751 5.08995L7.19241 6.18427L5.97658 6.35986C5.76647 6.3895 5.59449 6.53175 5.52794 6.7318C5.46214 6.93184 5.51523 7.14819 5.66777 7.29489L6.54935 8.14545L6.34148 9.34794C6.30559 9.5554 6.39008 9.76137 6.56206 9.8851C6.65927 9.954 6.77218 9.98957 6.88658 9.98957C6.97407 9.98957 7.0623 9.96808 7.14306 9.92585L8.23326 9.35831L9.32122 9.92437C9.50965 10.0244 9.73323 10.0088 9.90446 9.88436C10.0772 9.76137 10.1617 9.5554 10.1258 9.34794L9.91717 8.14545Z" fill="#4C1432"/>
</g>
</svg>
